<svg width="32" height="32" viewBox="0 0 32 32" fill="none" xmlns="http://www.w3.org/2000/svg">
<rect width="32" height="32" rx="16" fill="#EA4C89"/>
<path d="M21.7733 12.6534C21.1916 11.6452 20.3543 10.8082 19.346 10.2267C18.324 9.63137 17.2087 9.33337 16 9.33337C14.7913 9.33337 13.676 9.63137 12.6533 10.2267C11.6313 10.822 10.822 11.6314 10.2267 12.6534C9.63134 13.6754 9.33334 14.7914 9.33334 16C9.33334 17.2087 9.63067 18.3247 10.2267 19.3467C10.8082 20.355 11.6455 21.1921 12.654 21.7734C13.676 22.3687 14.7913 22.6667 16 22.6667C17.2087 22.6667 18.324 22.3687 19.3467 21.7734C20.355 21.1919 21.1923 20.3549 21.774 19.3467C22.3693 18.3247 22.6667 17.2087 22.6667 16C22.6667 14.7914 22.3693 13.6754 21.7733 12.6534ZM16 10.44C17.3333 10.44 18.5147 10.8667 19.5467 11.7194C18.9333 12.502 18.0227 13.146 16.8133 13.6527C16.1453 12.444 15.4213 11.4347 14.6393 10.626C15.0825 10.5035 15.5402 10.4409 16 10.44ZM11.6733 12.5334C12.1608 11.9143 12.7776 11.4092 13.4807 11.0534C14.2887 11.854 15.0307 12.8534 15.7073 14.0534C14.374 14.4534 12.9647 14.6534 11.48 14.6534C11.098 14.6534 10.8093 14.6447 10.6133 14.6267C10.8177 13.863 11.1786 13.1501 11.6733 12.5334ZM10.44 16C10.44 15.964 10.442 15.92 10.4467 15.8667C10.4513 15.8134 10.4533 15.7694 10.4533 15.7334C10.6227 15.7427 10.8807 15.7467 11.2273 15.7467C13.0047 15.7467 14.658 15.502 16.1867 15.0134C16.3113 15.262 16.4407 15.542 16.5733 15.8534C15.6933 16.0487 14.7907 16.524 13.866 17.28C12.9413 18.036 12.2667 18.8314 11.84 19.6667C10.9067 18.6087 10.44 17.3867 10.44 16ZM16 21.56C14.7373 21.56 13.604 21.1687 12.5993 20.3874C13 19.596 13.6153 18.8394 14.4467 18.12C15.2773 17.4 16.102 16.9514 16.92 16.7734C17.436 18.1994 17.785 19.6804 17.96 21.1867C17.3352 21.4308 16.6708 21.5574 16 21.56ZM20.72 18.92C20.2836 19.6231 19.6961 20.22 19 20.6674C18.84 19.2807 18.5333 17.9294 18.0807 16.6134C18.702 16.5694 19.2573 16.5467 19.7473 16.5467C20.28 16.5467 20.8713 16.5694 21.52 16.6134C21.433 17.4333 21.1593 18.2223 20.72 18.92ZM19.8933 15.5867C19.12 15.5867 18.4047 15.618 17.7467 15.68C17.6073 15.3152 17.4561 14.955 17.2933 14.6C18.6707 13.996 19.648 13.2627 20.226 12.4C21.026 13.3427 21.462 14.418 21.5327 15.6267C20.9913 15.6 20.4447 15.5867 19.8933 15.5867Z" fill="white"/>
</svg>
