<svg width="32" height="32" viewBox="0 0 32 32" fill="none" xmlns="http://www.w3.org/2000/svg">
<rect width="32" height="32" rx="16" fill="#1F5EA9"/>
<path d="M16.0007 9.33472C12.3193 9.33472 9.33467 12.3194 9.33467 16.0007C9.33467 19.3274 11.772 22.0847 14.9593 22.5867V17.9281H13.266V16.0007H14.9593V14.5321C14.9593 12.8601 15.9547 11.9381 17.4767 11.9381C18.206 11.9381 18.97 12.0681 18.97 12.0681V13.7074H18.1273C17.3007 13.7074 17.042 14.2221 17.042 14.7494V15.9994H18.8893L18.594 17.9267H17.042V22.5854C20.2293 22.0861 22.6667 19.3281 22.6667 16.0007C22.6667 12.3194 19.682 9.33472 16.0007 9.33472Z" fill="white"/>
</svg>
