<svg width="32" height="32" viewBox="0 0 32 32" fill="none" xmlns="http://www.w3.org/2000/svg">
<rect width="32" height="32" rx="16" fill="black"/>
<path d="M15.9993 12.918C15.1818 12.918 14.3977 13.2427 13.8196 13.8209C13.2415 14.399 12.9167 15.1831 12.9167 16.0006C12.9167 16.8182 13.2415 17.6023 13.8196 18.1804C14.3977 18.7585 15.1818 19.0833 15.9993 19.0833C16.8169 19.0833 17.601 18.7585 18.1791 18.1804C18.7572 17.6023 19.082 16.8182 19.082 16.0006C19.082 15.1831 18.7572 14.399 18.1791 13.8209C17.601 13.2427 16.8169 12.918 15.9993 12.918ZM15.9993 18.0026C15.4682 18.0026 14.9588 17.7916 14.5832 17.4161C14.2077 17.0405 13.9967 16.5311 13.9967 16C13.9967 15.4688 14.2077 14.9594 14.5832 14.5839C14.9588 14.2083 15.4682 13.9973 15.9993 13.9973C16.5305 13.9973 17.0399 14.2083 17.4154 14.5839C17.791 14.9594 18.002 15.4688 18.002 16C18.002 16.5311 17.791 17.0405 17.4154 17.4161C17.0399 17.7916 16.5305 18.0026 15.9993 18.0026Z" fill="white"/>
<path d="M19.204 13.5234C19.6009 13.5234 19.9227 13.2016 19.9227 12.8047C19.9227 12.4078 19.6009 12.0861 19.204 12.0861C18.8071 12.0861 18.4853 12.4078 18.4853 12.8047C18.4853 13.2016 18.8071 13.5234 19.204 13.5234Z" fill="white"/>
<path d="M21.6887 12.074C21.5343 11.6754 21.2985 11.3135 20.9962 11.0113C20.694 10.7092 20.3319 10.4735 19.9333 10.3193C19.4669 10.1442 18.9741 10.0495 18.476 10.0393C17.834 10.0113 17.6307 10.0033 16.0027 10.0033C14.3747 10.0033 14.166 10.0033 13.5293 10.0393C13.0316 10.049 12.5392 10.1437 12.0733 10.3193C11.6746 10.4733 11.3125 10.7089 11.0102 11.0111C10.7079 11.3133 10.4721 11.6753 10.318 12.074C10.1429 12.5404 10.0484 13.0332 10.0387 13.5313C10.01 14.1726 10.0013 14.376 10.0013 16.0046C10.0013 17.6326 10.0013 17.84 10.0387 18.478C10.0487 18.9766 10.1427 19.4686 10.318 19.936C10.4726 20.3345 10.7086 20.6963 11.011 20.9985C11.3133 21.3006 11.6754 21.5363 12.074 21.6906C12.5389 21.8728 13.0316 21.9742 13.5307 21.9906C14.1727 22.0186 14.376 22.0273 16.004 22.0273C17.632 22.0273 17.8407 22.0273 18.4773 21.9906C18.9754 21.9805 19.4681 21.8861 19.9347 21.7113C20.3332 21.5568 20.6951 21.3208 20.9973 21.0186C21.2995 20.7164 21.5355 20.3545 21.69 19.956C21.8653 19.4893 21.9593 18.9973 21.9693 18.4986C21.998 17.8573 22.0067 17.654 22.0067 16.0253C22.0067 14.3966 22.0067 14.19 21.9693 13.552C21.9616 13.0468 21.8666 12.5468 21.6887 12.074ZM20.8767 18.4286C20.8724 18.8128 20.8022 19.1935 20.6693 19.554C20.5692 19.8132 20.4159 20.0486 20.2194 20.2451C20.0228 20.4415 19.7873 20.5947 19.528 20.6946C19.1715 20.8269 18.7949 20.8971 18.4147 20.902C17.7813 20.9313 17.6027 20.9386 15.9787 20.9386C14.3533 20.9386 14.1873 20.9386 13.542 20.902C13.1619 20.8973 12.7855 20.8272 12.4293 20.6946C12.1691 20.5953 11.9327 20.4424 11.7353 20.2459C11.5378 20.0494 11.3839 19.8137 11.2833 19.554C11.1523 19.1973 11.0822 18.8212 11.076 18.4413C11.0473 17.808 11.0407 17.6293 11.0407 16.0053C11.0407 14.3806 11.0407 14.2146 11.076 13.5686C11.0803 13.1846 11.1504 12.8042 11.2833 12.444C11.4867 11.918 11.9033 11.504 12.4293 11.3026C12.7857 11.1707 13.162 11.1006 13.542 11.0953C14.176 11.0666 14.354 11.0586 15.9787 11.0586C17.6033 11.0586 17.77 11.0586 18.4147 11.0953C18.7949 11.0999 19.1716 11.17 19.528 11.3026C19.7873 11.4028 20.0228 11.5561 20.2193 11.7526C20.4159 11.9492 20.5691 12.1847 20.6693 12.444C20.8004 12.8006 20.8705 13.1767 20.8767 13.5566C20.9053 14.1906 20.9127 14.3686 20.9127 15.9933C20.9127 17.6173 20.9127 17.792 20.884 18.4293H20.8767V18.4286Z" fill="white"/>
</svg>
