<svg width="8" height="13" viewBox="0 0 8 13" fill="none" xmlns="http://www.w3.org/2000/svg">
<path d="M5.31034 5.92524C5.31034 5.92524 5.40613 5.82945 5.5977 5.63788C5.78927 5.44631 5.88506 5.07977 5.88506 4.53827C5.88506 3.99676 5.69349 3.53444 5.31034 3.15129C4.9272 2.76815 4.46488 2.57658 3.92337 2.57658C3.38186 2.57658 2.91954 2.76815 2.5364 3.15129C2.15326 3.53444 1.96169 3.99676 1.96169 4.53827C1.96169 5.07977 2.15326 5.5421 2.5364 5.92524C2.91954 6.30838 3.38186 6.49995 3.92337 6.49995C4.46488 6.49995 4.9272 6.30838 5.31034 5.92524ZM7.84674 4.53827C7.84674 5.0951 7.76245 5.55232 7.59387 5.90991L4.8046 11.8409C4.72286 12.0095 4.60153 12.1424 4.44061 12.2394C4.27969 12.3365 4.10728 12.385 3.92337 12.385C3.73946 12.385 3.56705 12.3365 3.40613 12.2394C3.24521 12.1424 3.12644 12.0095 3.04981 11.8409L0.252874 5.90991C0.0842912 5.55232 0 5.0951 0 4.53827C0 3.45525 0.383142 2.5306 1.14943 1.76432C1.91571 0.998036 2.84036 0.614895 3.92337 0.614895C5.00639 0.614895 5.93103 0.998036 6.69732 1.76432C7.4636 2.5306 7.84674 3.45525 7.84674 4.53827Z" fill="white"/>
</svg>
