<svg width="32" height="32" viewBox="0 0 32 32" fill="none" xmlns="http://www.w3.org/2000/svg">
<rect width="32" height="32" rx="16" fill="#FF8000"/>
<path d="M22.6667 15.724C22.6663 15.3356 22.5119 14.9633 22.2373 14.6887C21.9627 14.4141 21.5903 14.2596 21.202 14.2593C20.8033 14.2593 20.452 14.412 20.1947 14.67C19.1987 13.9553 17.816 13.486 16.2927 13.428L16.9607 10.2993L19.1287 10.7566C19.1379 10.9606 19.2069 11.1574 19.327 11.3225C19.4471 11.4876 19.613 11.6139 19.8042 11.6856C19.9954 11.7573 20.2034 11.7712 20.4025 11.7258C20.6015 11.6803 20.7828 11.5774 20.9239 11.4298C21.065 11.2822 21.1597 11.0964 21.1962 10.8955C21.2326 10.6946 21.2093 10.4874 21.1291 10.2997C21.0489 10.1119 20.9153 9.9518 20.7449 9.83927C20.5745 9.72674 20.3749 9.66671 20.1707 9.66663C19.7613 9.66663 19.41 9.90129 19.2453 10.2526L16.82 9.73663C16.7517 9.72436 16.6812 9.73689 16.6213 9.77196C16.5634 9.81083 16.5215 9.86931 16.5033 9.93663L15.7653 13.428C14.2073 13.4746 12.8133 13.9313 11.8053 14.67C11.5341 14.4098 11.1738 14.2629 10.798 14.2593C10.4097 14.2596 10.0373 14.4141 9.76271 14.6887C9.48811 14.9633 9.33369 15.3356 9.33333 15.724C9.33333 16.322 9.68467 16.8253 10.2007 17.06C10.1765 17.2069 10.1647 17.3557 10.1653 17.5046C10.1653 19.7546 12.778 21.57 16.0113 21.57C19.2453 21.57 21.858 19.7546 21.858 17.5046C21.858 17.3526 21.8467 17.212 21.8233 17.0713C22.0748 16.9468 22.2868 16.7549 22.4357 16.517C22.5846 16.2791 22.6646 16.0046 22.6667 15.724ZM12.6493 16.7666C12.6493 16.1926 13.1173 15.724 13.692 15.724C14.266 15.724 14.7347 16.1926 14.7347 16.7666C14.7347 17.3413 14.266 17.81 13.692 17.81C13.4155 17.8094 13.1505 17.6993 12.9551 17.5037C12.7596 17.3082 12.6497 17.0431 12.6493 16.7666ZM18.472 19.52C17.7573 20.2353 16.398 20.282 16 20.282C15.602 20.282 14.2307 20.2233 13.528 19.52C13.4773 19.4684 13.449 19.3989 13.449 19.3266C13.449 19.2543 13.4773 19.1849 13.528 19.1333C13.5796 19.0826 13.649 19.0543 13.7213 19.0543C13.7936 19.0543 13.8631 19.0826 13.9147 19.1333C14.3593 19.5786 15.3207 19.7433 16.0113 19.7433C16.7033 19.7433 17.652 19.5786 18.1093 19.1333C18.1609 19.0826 18.2304 19.0543 18.3027 19.0543C18.375 19.0543 18.4444 19.0826 18.496 19.1333C18.5378 19.1904 18.5584 19.2603 18.554 19.331C18.5496 19.4016 18.5206 19.4685 18.472 19.52ZM18.2847 17.81C18.0082 17.8094 17.7432 17.6993 17.5477 17.5037C17.3523 17.3082 17.2424 17.0431 17.242 16.7666C17.242 16.1926 17.71 15.724 18.2847 15.724C18.8587 15.724 19.3273 16.1926 19.3273 16.7666C19.3273 17.3413 18.8587 17.81 18.2847 17.81Z" fill="white"/>
</svg>
