<svg width="22" height="24" viewBox="0 0 22 24" fill="none" xmlns="http://www.w3.org/2000/svg">
<path d="M22 19.9531C22 21.2031 21.6198 22.1901 20.8594 22.9141C20.099 23.638 19.0885 24 17.8281 24H4.17188C2.91146 24 1.90104 23.638 1.14062 22.9141C0.380208 22.1901 0 21.2031 0 19.9531C0 19.401 0.0182292 18.862 0.0546875 18.3359C0.0911458 17.8099 0.164062 17.2422 0.273438 16.6328C0.382812 16.0234 0.520833 15.4583 0.6875 14.9375C0.854167 14.4167 1.07812 13.9089 1.35938 13.4141C1.64062 12.9193 1.96354 12.4974 2.32812 12.1484C2.69271 11.7995 3.13802 11.5208 3.66406 11.3125C4.1901 11.1042 4.77083 11 5.40625 11C5.5 11 5.71875 11.112 6.0625 11.3359C6.40625 11.5599 6.79427 11.8099 7.22656 12.0859C7.65885 12.362 8.22135 12.612 8.91406 12.8359C9.60677 13.0599 10.3021 13.1719 11 13.1719C11.6979 13.1719 12.3932 13.0599 13.0859 12.8359C13.7786 12.612 14.3411 12.362 14.7734 12.0859C15.2057 11.8099 15.5938 11.5599 15.9375 11.3359C16.2812 11.112 16.5 11 16.5938 11C17.2292 11 17.8099 11.1042 18.3359 11.3125C18.862 11.5208 19.3073 11.7995 19.6719 12.1484C20.0365 12.4974 20.3594 12.9193 20.6406 13.4141C20.9219 13.9089 21.1458 14.4167 21.3125 14.9375C21.4792 15.4583 21.6172 16.0234 21.7266 16.6328C21.8359 17.2422 21.9089 17.8099 21.9453 18.3359C21.9818 18.862 22 19.401 22 19.9531ZM15.2422 1.75781C15.2422 1.75781 15.5352 2.05078 16.1211 2.63672C16.707 3.22266 17 4.34375 17 6C17 7.65625 16.4141 9.07031 15.2422 10.2422C14.0703 11.4141 12.6562 12 11 12C9.34375 12 7.92969 11.4141 6.75781 10.2422C5.58594 9.07031 5 7.65625 5 6C5 4.34375 5.58594 2.92969 6.75781 1.75781C7.92969 0.585938 9.34375 0 11 0C12.6562 0 14.0703 0.585938 15.2422 1.75781Z" fill="white"/>
</svg>
