<svg width="17" height="18" viewBox="0 0 17 18" fill="none" xmlns="http://www.w3.org/2000/svg">
<path d="M15.4194 5.58941V12.7777C15.4194 13.1862 15.2571 13.578 14.9682 13.8668C14.6794 14.1557 14.2876 14.318 13.879 14.318H3.6101C3.20158 14.318 2.80979 14.1557 2.52092 13.8668C2.23205 13.578 2.06976 13.1862 2.06976 12.7777V5.58941M15.4194 5.58941C15.4194 5.18089 15.2571 4.7891 14.9682 4.50023C14.6794 4.21136 14.2876 4.04907 13.879 4.04907H3.6101C3.20158 4.04907 2.80979 4.21136 2.52092 4.50023C2.23205 4.7891 2.06976 5.18089 2.06976 5.58941M15.4194 5.58941V5.75577C15.4194 6.01875 15.3521 6.27737 15.2239 6.50697C15.0957 6.73658 14.9108 6.92953 14.6869 7.06745L9.55239 10.2269C9.3095 10.3765 9.02984 10.4557 8.74457 10.4557C8.4593 10.4557 8.17964 10.3765 7.93675 10.2269L2.80228 7.06814C2.57836 6.93022 2.39349 6.73726 2.26526 6.50766C2.13704 6.27805 2.06973 6.01944 2.06976 5.75645V5.58941" stroke="white" stroke-width="1.02689" stroke-linecap="round" stroke-linejoin="round"/>
</svg>
