<svg width="28" height="28" viewBox="0 0 28 28" fill="none" xmlns="http://www.w3.org/2000/svg">
<path d="M22.748 12.2506C22.748 20.5829 13.998 25.3756 13.998 25.3756C13.998 25.3756 5.24799 20.5829 5.24799 12.2506C5.24799 9.92997 6.16986 7.70437 7.8108 6.06343C9.45175 4.42248 11.6773 3.50061 13.998 3.50061C16.3186 3.50061 18.5442 4.42248 20.1852 6.06343C21.8261 7.70437 22.748 9.92997 22.748 12.2506Z" fill="#5C5C5C" stroke="#5C5C5C" stroke-width="1.02689" stroke-linecap="round" stroke-linejoin="round"/>
<path d="M17.4995 12.2506C17.4995 13.1789 17.1308 14.0691 16.4744 14.7255C15.818 15.3819 14.9278 15.7506 13.9995 15.7506C13.0713 15.7506 12.181 15.3819 11.5246 14.7255C10.8683 14.0691 10.4995 13.1789 10.4995 12.2506C10.4995 11.3224 10.8683 10.4321 11.5246 9.77574C12.181 9.11936 13.0713 8.75061 13.9995 8.75061C14.9278 8.75061 15.818 9.11936 16.4744 9.77574C17.1308 10.4321 17.4995 11.3224 17.4995 12.2506Z" fill="white" stroke="#5C5C5C" stroke-width="1.02689" stroke-linecap="round" stroke-linejoin="round"/>
</svg>
