<svg width="17" height="17" viewBox="0 0 17 17" fill="none" xmlns="http://www.w3.org/2000/svg">
<path d="M10.7992 7.27901C10.7992 7.8237 10.5828 8.34609 10.1977 8.73125C9.81251 9.11641 9.29012 9.33279 8.74542 9.33279C8.20072 9.33279 7.67833 9.11641 7.29318 8.73125C6.90802 8.34609 6.69164 7.8237 6.69164 7.27901C6.69164 6.73431 6.90802 6.21192 7.29318 5.82676C7.67833 5.4416 8.20072 5.22522 8.74542 5.22522C9.29012 5.22522 9.81251 5.4416 10.1977 5.82676C10.5828 6.21192 10.7992 6.73431 10.7992 7.27901Z" stroke="white" stroke-width="1.02689" stroke-linecap="round" stroke-linejoin="round"/>
<path d="M13.879 7.279C13.879 12.1684 8.74451 14.9807 8.74451 14.9807C8.74451 14.9807 3.61005 12.1684 3.61005 7.279C3.61005 5.91725 4.151 4.61128 5.1139 3.64838C6.0768 2.68548 7.38277 2.14453 8.74451 2.14453C10.1063 2.14453 11.4122 2.68548 12.3751 3.64838C13.338 4.61128 13.879 5.91725 13.879 7.279Z" stroke="white" stroke-width="1.02689" stroke-linecap="round" stroke-linejoin="round"/>
</svg>
