<svg width="17" height="18" viewBox="0 0 17 18" fill="none" xmlns="http://www.w3.org/2000/svg">
<path d="M2.06882 5.4663C2.06882 11.1375 6.66656 15.7352 12.3378 15.7352H13.8781C14.2866 15.7352 14.6784 15.573 14.9673 15.2841C15.2561 14.9952 15.4184 14.6034 15.4184 14.1949V13.2556C15.4184 12.9024 15.1781 12.5943 14.8352 12.5087L11.8072 11.7516C11.506 11.6763 11.1897 11.7892 11.0042 12.0371L10.3401 12.9222C10.147 13.1796 9.81365 13.2933 9.51174 13.1824C8.39098 12.7703 7.37317 12.1196 6.52881 11.2752C5.68445 10.4309 5.03371 9.41308 4.62167 8.29231C4.51077 7.99041 4.62441 7.65701 4.88182 7.46395L5.767 6.79989C6.01551 6.61437 6.12779 6.2974 6.05248 5.99686L5.29532 2.9689C5.25365 2.80233 5.15752 2.65446 5.0222 2.54878C4.88688 2.44311 4.72012 2.38568 4.54842 2.38562H3.60916C3.20063 2.38562 2.80884 2.54791 2.51997 2.83678C2.2311 3.12565 2.06882 3.51744 2.06882 3.92596V5.4663Z" stroke="white" stroke-width="1.02689" stroke-linecap="round" stroke-linejoin="round"/>
</svg>
