<svg width="19" height="23" viewBox="0 0 19 23" fill="none" xmlns="http://www.w3.org/2000/svg">
<path fill-rule="evenodd" clip-rule="evenodd" d="M18.6284 1.82569V21.6474C18.6284 21.7898 18.5895 21.9294 18.516 22.0513C18.4424 22.1732 18.3371 22.2727 18.2112 22.3391C18.0853 22.4055 17.9437 22.4364 17.8016 22.4283C17.6595 22.4202 17.5222 22.3735 17.4047 22.2932L14.8018 20.5166L12.3408 22.2828C12.1975 22.386 12.0234 22.4376 11.8469 22.4291C11.6705 22.4206 11.5022 22.3524 11.3695 22.2358L9.49999 20.6011L7.63049 22.2358C7.4978 22.3524 7.32949 22.4206 7.15306 22.4291C6.97663 22.4376 6.80253 22.386 6.65922 22.2828L4.19819 20.5166L1.59528 22.2932C1.47775 22.3735 1.34054 22.4202 1.19843 22.4283C1.05632 22.4364 0.914702 22.4055 0.788818 22.3391C0.662934 22.2727 0.557555 22.1732 0.484029 22.0513C0.410503 21.9294 0.371614 21.7898 0.371552 21.6474V1.82569C0.371552 0.817908 1.18842 0 2.19724 0H16.8027C17.8116 0 18.6284 0.817908 18.6284 1.82569ZM5.32699 9.91088H13.673C13.8805 9.91088 14.0795 9.82844 14.2263 9.68171C14.373 9.53497 14.4554 9.33596 14.4554 9.12844C14.4554 8.92093 14.373 8.72191 14.2263 8.57517C14.0795 8.42844 13.8805 8.346 13.673 8.346H5.32699C5.11948 8.346 4.92046 8.42844 4.77372 8.57517C4.62699 8.72191 4.54455 8.92093 4.54455 9.12844C4.54455 9.33596 4.62699 9.53497 4.77372 9.68171C4.92046 9.82844 5.11948 9.91088 5.32699 9.91088ZM5.32699 5.73788H13.673C13.8805 5.73788 14.0795 5.65544 14.2263 5.50871C14.373 5.36197 14.4554 5.16295 14.4554 4.95544C14.4554 4.74792 14.373 4.54891 14.2263 4.40217C14.0795 4.25544 13.8805 4.173 13.673 4.173H5.32699C5.11948 4.173 4.92046 4.25544 4.77372 4.40217C4.62699 4.54891 4.54455 4.74792 4.54455 4.95544C4.54455 5.16295 4.62699 5.36197 4.77372 5.50871C4.92046 5.65544 5.11948 5.73788 5.32699 5.73788ZM5.32699 14.0839H9.49999C9.70751 14.0839 9.90652 14.0014 10.0533 13.8547C10.2 13.708 10.2824 13.509 10.2824 13.3014C10.2824 13.0939 10.2 12.8949 10.0533 12.7482C9.90652 12.6014 9.70751 12.519 9.49999 12.519H5.32699C5.11948 12.519 4.92046 12.6014 4.77372 12.7482C4.62699 12.8949 4.54455 13.0939 4.54455 13.3014C4.54455 13.509 4.62699 13.708 4.77372 13.8547C4.92046 14.0014 5.11948 14.0839 5.32699 14.0839Z" fill="#5C5C5C"/>
</svg>
