<svg width="14" height="13" viewBox="0 0 14 13" fill="none" xmlns="http://www.w3.org/2000/svg">
<path d="M0.469437 6.43309C0.469437 5.57875 0.635753 4.76468 0.968386 3.99087C1.30102 3.21706 1.74745 2.55004 2.30767 1.98982C2.8679 1.42959 3.53491 0.983163 4.30872 0.65053C5.08253 0.317897 5.89661 0.15158 6.75095 0.15158C7.59829 0.15158 8.40886 0.317897 9.18267 0.65053C9.95648 0.983163 10.6235 1.42959 11.1837 1.98982C11.7439 2.55004 12.1904 3.21706 12.523 3.99087C12.8556 4.76468 13.022 5.57875 13.022 6.43309C13.022 7.56755 12.7418 8.61622 12.1816 9.5791C11.6214 10.542 10.8598 11.3035 9.89696 11.8638C8.93407 12.424 7.8854 12.7041 6.75095 12.7041C5.6165 12.7041 4.56608 12.424 3.59969 11.8638C2.6333 11.3035 1.87 10.542 1.30977 9.5791C0.749549 8.61622 0.469437 7.56755 0.469437 6.43309ZM3.08498 4.51082C3.02896 4.74892 3.04822 5.07455 3.14276 5.48771C3.23729 5.90088 3.26355 6.2055 3.22154 6.40158C3.22154 6.46461 3.28106 6.61867 3.40011 6.86377C3.51916 7.10886 3.57518 7.31895 3.56818 7.49402C3.65221 7.49402 3.73274 7.51328 3.80977 7.55179C3.8868 7.59031 3.96734 7.64283 4.05137 7.70935C4.1354 7.77588 4.20543 7.82315 4.26145 7.85116C4.40151 7.92119 4.77966 8.06825 5.39591 8.29234C5.54997 8.34836 5.73554 8.45865 5.95263 8.62322C6.16972 8.78778 6.37805 8.92259 6.57763 9.02763C6.77721 9.13267 6.97854 9.17119 7.18162 9.14318C7.23764 9.26923 7.18512 9.46356 7.02406 9.72616C6.86299 9.98877 6.79297 10.1901 6.81397 10.3302C6.89801 10.4772 6.97679 10.598 7.05032 10.6925C7.12385 10.7871 7.22189 10.8816 7.34444 10.9762C7.46699 11.0707 7.59479 11.132 7.72784 11.16C7.72784 11.202 7.71734 11.2563 7.69633 11.3228C7.67532 11.3893 7.66306 11.4401 7.65956 11.4751C7.65606 11.5101 7.67182 11.5696 7.70683 11.6537C8.41411 11.6677 9.18792 11.279 10.0283 10.4877C10.2453 10.2776 10.4099 10.1096 10.522 9.98351C10.634 9.85746 10.7531 9.68589 10.8791 9.46881C11.0052 9.25172 11.0787 9.03463 11.0997 8.81755C11.0016 8.75452 10.8703 8.72126 10.7058 8.71776C10.5412 8.71426 10.4169 8.68799 10.3329 8.63898C10.2348 8.58996 10.0633 8.53743 9.81818 8.48141C9.57308 8.42539 9.39101 8.35886 9.27196 8.28183C9.20893 8.28183 9.07063 8.28358 8.85704 8.28708C8.64346 8.29059 8.48064 8.29584 8.3686 8.30284C8.25655 8.30984 8.12 8.3326 7.95893 8.37112C7.79787 8.40963 7.66131 8.46741 7.54927 8.54444C7.19913 8.78954 6.96804 8.83155 6.85599 8.67049C6.82798 8.65648 6.81573 8.5672 6.81923 8.40263C6.82273 8.23807 6.82448 8.14878 6.82448 8.13477C6.78246 8.04374 6.68967 7.98421 6.54612 7.9562C6.40256 7.92819 6.31678 7.90368 6.28876 7.88267C6.30277 7.72861 6.29577 7.58505 6.26776 7.452C6.23975 7.31895 6.18197 7.22091 6.09444 7.15788C6.0069 7.09486 5.8721 7.16489 5.69002 7.36797C5.52896 7.54304 5.3819 7.52903 5.24885 7.32595C5.1158 7.12987 5.08778 6.92679 5.16481 6.71671C5.22084 6.60466 5.29787 6.52763 5.39591 6.48561C5.43792 6.49262 5.52896 6.49787 5.66902 6.50137C5.80907 6.50487 5.92637 6.52063 6.02091 6.54864C6.11545 6.57665 6.18372 6.62217 6.22574 6.68519C6.30977 6.81825 6.42182 6.94955 6.56187 7.0791C6.70193 7.20865 6.82098 7.30494 6.91902 7.36797L7.06608 7.452C7.06608 7.43099 7.09934 7.29269 7.16587 7.03708C7.23239 6.78148 7.25165 6.58015 7.22364 6.43309C7.19563 6.27203 7.2464 6.11622 7.37595 5.96566C7.5055 5.8151 7.58428 5.7048 7.61229 5.63477C7.64731 5.53673 7.68232 5.41419 7.71734 5.26713C7.75235 5.12007 7.78211 5.01152 7.80662 4.9415C7.83113 4.87147 7.8854 4.79269 7.96944 4.70515C8.05347 4.61762 8.17252 4.54234 8.32658 4.47931C8.28456 4.35326 8.31958 4.22371 8.43162 4.09066C8.48764 4.09066 8.56993 4.09591 8.67847 4.10641C8.78701 4.11692 8.8728 4.12217 8.93582 4.12217C8.99885 4.12217 9.07063 4.10641 9.15116 4.0749C9.23169 4.04339 9.30347 3.98912 9.3665 3.91208C9.29647 3.75102 9.18968 3.60221 9.04612 3.46566C8.90256 3.3291 8.76951 3.22406 8.64696 3.15053C8.52441 3.077 8.35284 2.98421 8.13225 2.87217C7.91166 2.76012 7.75935 2.67959 7.67532 2.63057C7.75235 2.34346 7.75585 2.18939 7.68582 2.16839C7.90291 2.25942 8.10774 2.31019 8.30032 2.3207C8.4929 2.3312 8.6312 2.31895 8.71523 2.28393L8.83078 2.24192C8.8728 1.98982 8.81327 1.80249 8.65221 1.67994C8.49115 1.55739 8.26706 1.4576 7.97994 1.38057C7.69283 1.30354 7.49675 1.22301 7.39171 1.13898C7.25865 1.15998 7.1291 1.15998 7.00305 1.13898C6.89801 1.22301 6.77021 1.29654 6.61965 1.35956C6.46909 1.42259 6.34829 1.46461 6.25725 1.48561C6.16622 1.50662 6.01215 1.53463 5.79507 1.56965C5.57798 1.60466 5.44143 1.62567 5.3854 1.63267C5.28036 1.65368 5.1193 1.65368 4.90221 1.63267C4.68512 1.61166 4.52756 1.62217 4.42952 1.66419C4.28946 1.7062 4.10914 1.79549 3.88855 1.93204C3.66797 2.0686 3.54717 2.18939 3.52616 2.29444C3.50515 2.37147 3.52791 2.45025 3.59444 2.53078C3.66096 2.61131 3.69073 2.67609 3.68372 2.72511C3.66271 2.96321 3.56643 3.28183 3.39486 3.68099C3.22329 4.08015 3.12 4.35676 3.08498 4.51082ZM5.85809 3.09276C5.8791 3.00872 5.93512 2.90193 6.02616 2.77238C6.1172 2.64283 6.17322 2.55354 6.19423 2.50452C6.26425 2.57455 6.32903 2.60956 6.38855 2.60956C6.44808 2.60956 6.4971 2.58856 6.53561 2.54654C6.57413 2.50452 6.6249 2.45375 6.68792 2.39423C6.75095 2.3347 6.80697 2.29094 6.85599 2.26293C6.85599 2.38898 6.884 2.53778 6.94002 2.70935C6.99605 2.88092 7.05382 3.03498 7.11334 3.17154C7.17287 3.30809 7.20613 3.39038 7.21313 3.41839C7.17112 3.41138 7.03456 3.39388 6.80347 3.36587C6.57238 3.33785 6.38505 3.30284 6.2415 3.26082C6.09794 3.21881 5.97014 3.16278 5.85809 3.09276Z" fill="white"/>
</svg>
